<svg xmlns="http://www.w3.org/2000/svg" xmlns:xlink="http://www.w3.org/1999/xlink" style="vertical-align:-3.255ex" width="32.185ex" height="7.384ex" viewBox="0 -1778 13857.4 3179.3"><defs><path id="h" stroke-width="1" d="M52 289q7 42 54 97t116 56q35 0 64-18t43-45q42 63 101 63 37 0 64-22t28-59q0-29-14-47t-27-22-23-4q-19 0-31 11t-12 29q0 46 50 63-11 13-40 13-13 0-19-2-38-16-56-66-60-221-60-258 0-28 16-40t35-12q37 0 73 33t49 81q3 10 6 11t16 2h4q15 0 15-8 0-1-2-11-16-57-62-101T333-11q-70 0-106 63-41-62-94-62h-6q-49 0-70 26T35 71q0 32 19 52t45 20q43 0 43-42 0-20-12-35t-23-20-13-5l-3-1q0-1 6-4t16-7 19-3q36 0 62 45 9 16 23 68t28 108 16 66q5 27 5 39 0 28-15 40t-34 12q-40 0-75-32t-49-82q-2-9-5-10t-16-2H58q-6 6-6 11z"/><path id="a" stroke-width="1" d="M50 252q0 115 67 221t169 168 204 63q90 0 143-51 9-10 15-17t8-10l1-3q3 0 27 26 7 6 15 14t16 16 10 11l15 15h6q14 0 14-7 0-4-32-137-36-139-36-140-2-5-5-6t-18-2h-16q-6 6-6 9 0 1 1 7t2 20 1 32q0 71-32 124t-109 54q-18 0-39-3t-53-13-61-28-63-48-58-71-47-102-31-134q-2-18-2-39 0-48 14-85t36-57 50-34 52-17 45-4q54 0 99 23t62 59q3 8 15 55t12 53q0 8-13 10t-60 3h-37q-6 6-6 8t2 19q4 13 10 19h17q40-2 140-2h65q25 0 36 1t12 0q14 0 14-9 0-2-2-14-5-19-10-21-3-1-15-1-20 0-41-3-7-3-10-9t-14-51q-9-33-15-56Q589 6 586 3q-2-2-5-2-10 0-28 20t-23 31q0 1-2 0t-6-5q-74-69-200-69-121 0-196 77T50 252z"/><path id="c" stroke-width="1" d="M56 347q0 13 14 20h637q15-8 15-20 0-11-14-19l-318-1H72q-16 5-16 20zm0-194q0 15 16 20h636q14-10 14-20 0-13-15-20H70q-14 7-14 20z"/><path id="e" stroke-width="1" d="M220 812q0 1-2 7t-4 10-6 11-9 13-14 13-19 12-26 9-33 6-41 3H56v54h1165v-54h-10q-131 0-153-84V-311q18-85 153-85h10v-54H725v54h10q129 0 153 82 1 2 1 3V896H388V292l1-603q16-85 153-85h10v-54H56v54h10q129 0 153 82 1 2 1 3V812z"/><path id="f" stroke-width="1" d="M184 600q0 24 19 42t44 19q18 0 30-12t13-30q0-23-20-42t-44-20q-15 0-28 10t-14 33zM21 287q0 8 9 31t24 51 44 51 60 22q39 0 65-23t27-62q0-17-14-56t-40-105-42-113q-5-22-5-32 0-25 17-25 9 0 19 3t23 14 27 35 25 59q3 12 5 14t17 2q20 0 20-10 0-8-9-31t-25-51-45-50-62-22q-32 0-59 21T74 74q0 17 5 32t43 114q38 101 44 121t7 39q0 24-17 24h-2q-30 0-55-33t-38-84q-1-1-2-3t-1-3-2-2-3-1-4 0-8 0H27q-6 6-6 9z"/><path id="g" stroke-width="1" d="M213 578l-13-5q-14-5-40-10t-58-7H83v46h19q47 2 87 15t56 24 28 22q2 3 12 3 9 0 17-6V361l1-300q7-7 12-9t24-4 62-2h26V0h-11q-21 3-159 3-136 0-157-3H88v46h64q16 0 25 1t16 3 8 2 6 5 6 4v517z"/><path id="b" stroke-width="1" d="M21 287q1 6 3 16t12 38 20 47 33 37 46 17q36 0 60-18t30-34 6-21q0-2 1-2l11 11q61 64 139 64 54 0 87-27t34-79-38-157-38-127q0-26 17-26 6 0 9 1 29 5 52 38t35 80q2 8 20 8 20 0 20-8 0-1-4-15-8-29-22-57t-46-56-69-27q-47 0-68 27t-21 56q0 19 36 120t37 152q0 59-44 59h-5q-86 0-145-101l-7-12-33-134Q156 26 151 16q-13-27-43-27-13 0-21 6T76 7t-2 10q0 13 38 163t40 163q1 5 1 23 0 39-24 39-38 0-63-100-6-20-6-21-2-6-19-6H27q-6 6-6 9z"/><path id="d" stroke-width="1" d="M983 1739q5 11 18 11 7 0 12-5t7-12q0-7-278-1489T460-1241q-2-9-21-9h-3q-12 0-12 2l-14 82q-15 83-43 246t-55 319L201 44 137-83l-26 26 76 153 77 151q1-1 105-604 101-601 104-606L727 384q252 1345 256 1355z"/><path id="j" stroke-width="1" d="M109 429q-27 0-43 18t-16 44q0 71 53 123t132 52q91 0 152-56t62-145q0-43-20-82t-48-68-80-74q-36-31-100-92l-59-56 76-1q157 0 167 5 7 2 24 89v3h40v-3q-1-3-13-91T421 3V0H50v31q0 7 6 15t30 35q29 32 50 56 9 10 34 37t34 37 29 33 28 34 23 30 21 32 15 29 13 32 7 30 3 33q0 63-34 109t-97 46q-33 0-58-17t-35-33-10-19q0-1 5-1 18 0 37-14t19-46q0-25-16-42t-45-18z"/><path id="k" stroke-width="1" d="M127 463q-27 0-42 17t-16 44q0 55 48 98t116 43q35 0 44-1 74-12 113-53t40-89q0-52-34-101t-94-71l-3-2q0-1 9-3t29-9 38-21q82-53 82-140 0-79-62-138T238-22q-80 0-138 43T42 130q0 28 18 45t45 18q28 0 46-18t18-45q0-11-3-20t-7-16-11-12-12-8-10-4-8-3l-4-1q51-45 124-45 55 0 83 53 17 33 17 101v20q0 95-64 127-15 6-61 7l-42 1-3 2q-2 3-2 16 0 18 8 18 28 0 58 5 34 5 62 42t28 112v8q0 57-35 79-22 14-47 14-32 0-59-11t-38-23-11-12h3q3-1 8-2t10-5 12-7 10-11 8-15 3-20q0-22-14-39t-45-18z"/><path id="l" stroke-width="1" d="M78 250q0 24 17 42t43 18q24 0 42-16t19-43q0-25-17-43t-43-18-43 17-18 43zm447 0q0 24 17 42t43 18q24 0 42-16t19-43q0-25-17-43t-43-18-43 17-18 43zm447 0q0 24 17 42t43 18q24 0 42-16t19-43q0-25-17-43t-43-18-43 17-18 43z"/><path id="i" stroke-width="1" d="M95 178q-6 0-14 8t-9 14 31 30 66 50 38 29q2 2 5 2h1q6 0 14-17t54-117q19-43 31-69l85-185q1 0 104 213t206 429 107 221q6 14 20 14 7 0 12-6t7-12v-6L620 293 385-193q-4-7-19-7-9 0-12 3-2 2-98 212l-96 210-16-11q-15-12-31-24t-18-12z"/></defs><g fill="currentColor" stroke="currentColor" stroke-width="0" transform="scale(1 -1)"><use xlink:href="#a"/><use x="1112" y="-213" transform="scale(.707)" xlink:href="#b"/><use x="1588" xlink:href="#c"/><g transform="translate(2645)"><use x="720" y="409" transform="scale(.5)" xlink:href="#b"/><use y="-91" xlink:href="#d"/><path stroke="none" d="M1000 1600h2361v60H1000z"/><g transform="translate(1000)"><use xlink:href="#e"/><g transform="matrix(.707 0 0 .707 64 -1090)"><use xlink:href="#f"/><use x="345" xlink:href="#c"/><use x="1124" xlink:href="#g"/></g><use x="603" y="1627" transform="scale(.707)" xlink:href="#b"/><g transform="translate(1445)"><use xlink:href="#h"/><use x="809" y="-213" transform="scale(.707)" xlink:href="#f"/></g></g></g><use x="6285" xlink:href="#c"/><g transform="translate(7341)"><use x="503" y="518" transform="scale(.5)" xlink:href="#b"/><use y="-186" xlink:href="#i"/><path stroke="none" d="M833 555h5682v60H833z"/><g transform="translate(833)"><use xlink:href="#h"/><use x="809" y="-213" transform="scale(.707)" xlink:href="#g"/><g transform="translate(1026)"><use xlink:href="#h"/><use x="809" y="-213" transform="scale(.707)" xlink:href="#j"/></g><g transform="translate(2052)"><use xlink:href="#h"/><use x="809" y="-213" transform="scale(.707)" xlink:href="#k"/></g><use x="3245" xlink:href="#l"/><g transform="translate(4585)"><use xlink:href="#h"/><use x="809" y="-213" transform="scale(.707)" xlink:href="#b"/></g></g></g></g></svg>